<svg width="32" height="32" viewBox="0 0 32 32" fill="none" xmlns="http://www.w3.org/2000/svg">
<path fill-rule="evenodd" clip-rule="evenodd" d="M19.8148 23.7052C20.7628 23.1579 21.416 22.5576 21.8378 21.949C21.3124 20.6336 20.8837 19.2387 20.5254 17.8998C20.4596 17.6557 20.3961 17.4107 20.3349 17.165C19.3271 16.8694 18.1576 16.8921 17.044 14.9635C15.6507 12.4952 17.0516 11.5168 16.8535 10.0653C16.669 8.14732 14.5113 6.0858 10.8591 8.19419C2.15592 13.2186 11.1118 28.7304 19.8148 23.7052ZM19.2236 8.68425L19.6651 7.30605L20.7341 8.276C23.8186 11.0747 17.9504 12.6503 19.2228 8.68425H19.2236ZM20.4793 15.0241C20.3228 14.1933 20.0839 12.7652 20.0484 11.663C20.567 11.7159 21.0871 11.576 21.5097 11.2706C22.0299 12.2428 22.5379 13.5991 22.8176 14.3974L20.4793 15.0241ZM23.0127 14.9712C23.2267 15.6304 23.4353 16.3335 23.6326 17.0676C24.7099 21.0879 25.0184 24.499 24.3213 24.6858C23.6243 24.8725 22.1864 21.7645 21.109 17.7442C20.9125 17.0101 20.7416 16.2964 20.5972 15.6184L23.0127 14.9712ZM13.1189 12.1082C12.6638 12.3698 12.0953 12.332 11.6795 12.0122C11.2629 11.6924 11.0807 11.1526 11.2168 10.6461C11.3529 10.1388 11.7816 9.76385 12.3017 9.69504C12.8226 9.627 13.3329 9.87875 13.5952 10.3331C13.9536 10.9553 13.7403 11.7499 13.1189 12.1082ZM18.8805 22.0868C18.4254 22.3491 17.8569 22.3113 17.4411 21.9915C17.0245 21.671 16.8423 21.1319 16.9784 20.6247C17.1145 20.1181 17.5424 19.7424 18.0633 19.6744C18.5834 19.6056 19.0945 19.8581 19.3568 20.3124C19.5292 20.6111 19.5753 20.9656 19.4861 21.2983C19.3969 21.6317 19.1784 21.9152 18.8798 22.0868L18.8805 22.0868ZM13.8046 21.3413C13.3502 21.6029 12.7817 21.5651 12.3659 21.2453C11.9494 20.9256 11.7672 20.3865 11.9033 19.8792C12.0393 19.372 12.4673 18.997 12.9881 18.9282C13.509 18.8601 14.0193 19.1119 14.2817 19.567C14.64 20.1884 14.4268 20.983 13.8046 21.3413ZM11.2002 16.8302H11.2009C10.7458 17.0918 10.1773 17.054 9.76152 16.7342C9.34497 16.4136 9.16275 15.8746 9.29885 15.3681C9.43493 14.8608 9.86283 14.4858 10.3837 14.417C10.9046 14.349 11.4149 14.6007 11.6772 15.0551C11.8496 15.3537 11.8957 15.709 11.8065 16.0417C11.7173 16.3743 11.4988 16.6578 11.2002 16.8302Z" fill="black"/>
</svg>
