<svg width="32" height="32" viewBox="0 0 32 32" fill="none" xmlns="http://www.w3.org/2000/svg">
<path d="M19.6637 12.5877C18.7879 12.0592 18.4079 10.7322 18.7938 9.82969C19.0981 9.11867 20.1936 6.59375 20.1936 6.59375H16.3936L7.92969 23.5409C7.92969 23.5409 10.3032 21.9407 13.8063 23.4755C14.9018 23.9565 16.0552 24.4107 17.354 24.3335C20.4118 24.1509 22.8566 21.7908 23.1341 18.7374C23.3805 16.0433 21.8531 13.9073 19.6652 12.5862L19.6637 12.5877ZM20.6701 18.54C20.4979 20.2797 19.0907 21.6869 17.351 21.8576C14.9998 22.0906 13.0448 20.1342 13.2749 17.7815C13.4471 16.0418 14.8543 14.6346 16.594 14.4624C18.9467 14.2309 20.9031 16.1873 20.6701 18.54Z" fill="black"/>
<path d="M18.73 18.3396C18.6484 19.1664 17.9789 19.8358 17.1521 19.916C16.0344 20.0273 15.1052 19.0966 15.215 17.9789C15.2967 17.1521 15.9661 16.4826 16.7929 16.401C17.9106 16.2912 18.8413 17.2204 18.73 18.3396Z" fill="black"/>
</svg>
