<svg width="32" height="32" viewBox="0 0 32 32" fill="none" xmlns="http://www.w3.org/2000/svg">
<g clip-path="url(#clip0_2_13)">
<path fill-rule="evenodd" clip-rule="evenodd" d="M18.1437 13.2977C18.7238 13.0098 19.4617 12.5858 20.2007 12.0048C20.3564 12.327 20.3737 12.6081 20.2932 12.8351C20.2363 12.9951 20.1291 13.1342 19.9883 13.2449C19.8357 13.3645 19.645 13.4517 19.4344 13.4988C19.0346 13.5884 18.5677 13.5361 18.1437 13.2977ZM18.2443 16.2486L19.0121 16.6902C17.4444 17.5653 17.0181 19.19 16.5117 20.7723C16.0056 19.19 15.5793 17.5651 14.0116 16.6902L14.7794 16.2486C14.9318 16.1912 15.0297 16.0428 15.022 15.8807C14.9516 14.3986 15.3535 13.7431 15.8957 13.3318C16.09 13.1844 16.3023 13.1104 16.5117 13.1104C16.7212 13.1104 16.9335 13.1844 17.1279 13.3318C17.6698 13.7433 18.0717 14.3986 18.0015 15.8807C17.9937 16.0428 18.0921 16.1912 18.2443 16.2486ZM16.5119 6.57146C17.3994 6.59523 18.2892 6.76674 19.0614 7.10051C19.5962 7.33199 20.095 7.63759 20.5469 8.00318C20.7509 8.16822 20.9189 8.32767 21.104 8.51125C21.6032 8.52838 22.3327 7.97625 22.6714 7.45961C22.0884 9.36234 19.4289 11.6091 17.5877 12.469L17.5859 12.4679C17.2555 12.2167 16.8838 12.091 16.5122 12.091C16.1404 12.091 15.7687 12.2167 15.4383 12.4679L15.4365 12.469C13.595 11.6091 10.9356 9.36216 10.3527 7.45961C10.6914 7.97625 11.4207 8.52855 11.9198 8.51125C12.1049 8.32784 12.2729 8.16822 12.4769 8.00318C12.9287 7.63759 13.4276 7.33199 13.9625 7.10051C14.7348 6.76674 15.6244 6.59523 16.5119 6.57146ZM14.8802 13.2977C14.3003 13.0098 13.5621 12.5858 12.8231 12.0048C12.6674 12.327 12.6502 12.6081 12.7304 12.8351C12.7874 12.9951 12.8946 13.1342 13.0354 13.2449C13.1882 13.3645 13.3788 13.4517 13.5895 13.4988C13.9893 13.5884 14.4563 13.5361 14.8802 13.2977Z" fill="black"/>
<path fill-rule="evenodd" clip-rule="evenodd" d="M20.6747 11.2936C21.0815 10.8848 21.44 10.4324 21.7281 10.0285L21.8746 10.3028C22.3458 11.2417 22.5907 12.1768 22.5907 13.2292L22.5897 14.8992L22.5984 15.7648C22.6325 17.8901 23.0944 20.0402 24.1405 22.008L21.9518 20.2506L20.4033 22.7529L18.7764 21.2279L16.1766 25.4291L13.5767 21.2281L11.9498 22.7531L10.4013 20.2507L8.21262 22.0082C9.25868 20.0404 9.72043 17.8901 9.75466 15.765L9.76344 14.8994L9.76239 13.2294C9.76239 12.1768 10.0071 11.2418 10.4785 10.303L10.6248 10.0287C10.9131 10.4324 11.2714 10.8848 11.6782 11.2938L11.5511 11.5565C11.3042 12.0669 11.2226 12.6376 11.4149 13.1804C11.5388 13.5299 11.765 13.8298 12.0566 14.0586C12.3398 14.2809 12.6749 14.4306 13.0257 14.5094C13.2543 14.5606 13.4871 14.5817 13.7186 14.5745C13.6646 14.8793 13.6409 15.1952 13.6395 15.5173L11.575 16.7047L13.1681 17.5939C13.2954 17.6651 13.4168 17.7464 13.5305 17.8375C14.8439 19.0119 15.6336 22.486 16.1764 24.1829C16.7191 22.486 17.5088 19.0119 18.8222 17.8375C18.936 17.7466 19.0574 17.6651 19.1846 17.5939L20.7778 16.7047L18.7132 15.5173C18.7116 15.1952 18.6881 14.8793 18.6342 14.5745C18.8656 14.5817 19.0984 14.5606 19.327 14.5094C19.6778 14.4306 20.013 14.2809 20.2962 14.0586C20.5878 13.8298 20.8139 13.5299 20.9379 13.1804C21.1301 12.6377 21.0485 12.0671 20.8016 11.5565L20.6747 11.2936Z" fill="black"/>
</g>
</svg>
